<svg xmlns="http://www.w3.org/2000/svg" width="540" height="749" viewBox="0 0 540 749">
  <g id="Group_17027" data-name="Group 17027" transform="translate(-723 651)">
    <path id="Rectangle_3144" data-name="Rectangle 3144" d="M0,0H524a16,16,0,0,1,16,16V733a16,16,0,0,1-16,16H0a0,0,0,0,1,0,0V0A0,0,0,0,1,0,0Z" transform="translate(723 -651)" fill="rgba(173,202,49,0.1)"/>
    <g id="Layer_2" data-name="Layer 2" transform="translate(846.727 -534)">
      <g id="Layer_1" data-name="Layer 1" transform="translate(0)">
        <path id="Path_16574" data-name="Path 16574" d="M382.057,1328.689H169.93a8.209,8.209,0,0,1-8.2-8.2V1188.97a8.21,8.21,0,0,1,8.2-8.2H382.057a8.21,8.21,0,0,1,8.2,8.2v131.524A8.209,8.209,0,0,1,382.057,1328.689Zm-212.127-146a6.291,6.291,0,0,0-6.285,6.285v131.524a6.292,6.292,0,0,0,6.285,6.284H382.057a6.292,6.292,0,0,0,6.285-6.284V1188.97a6.292,6.292,0,0,0-6.285-6.285Z" transform="translate(-145.262 -1060.542)" fill="#686874"/>
        <rect id="Rectangle_2814" data-name="Rectangle 2814" width="226.611" height="146.004" rx="15.13" transform="translate(43.6 104.932)" fill="#fff"/>
        <path id="Path_16575" data-name="Path 16575" d="M640.932,1170.668H428.8a8,8,0,0,1-7.994-7.994v-131.52a8,8,0,0,1,7.994-7.994H640.932a8,8,0,0,1,7.994,7.994v131.519A8,8,0,0,1,640.932,1170.668Zm-212.128-146a6.5,6.5,0,0,0-6.489,6.49v131.519a6.5,6.5,0,0,0,6.489,6.489H640.932a6.5,6.5,0,0,0,6.489-6.489v-131.52a6.5,6.5,0,0,0-6.489-6.49Z" transform="translate(-377.962 -918.98)" fill="#2b2c31"/>
        <path id="Path_16576" data-name="Path 16576" d="M440.27,1232.07H664.086" transform="translate(-395.441 -1106.618)" fill="#f8f8fe"/>
        <path id="Path_16577" data-name="Path 16577" d="M432.254,1224.712H656.07a.941.941,0,0,0,0-1.882H432.254A.941.941,0,0,0,432.254,1224.712Z" transform="translate(-387.424 -1098.319)" fill="#2b2c31"/>
        <path id="Path_16578" data-name="Path 16578" d="M535.906,1105.008a3.248,3.248,0,1,1-3.248-3.248A3.248,3.248,0,0,1,535.906,1105.008Z" transform="translate(-475.504 -989.577)" fill="#2b2c31"/>
        <path id="Path_16579" data-name="Path 16579" d="M649.934,1105.008a3.247,3.247,0,1,1-3.247-3.248,3.247,3.247,0,0,1,3.247,3.248Z" transform="translate(-577.924 -989.577)" fill="#2b2c31"/>
        <path id="Path_16580" data-name="Path 16580" d="M763.936,1105.008a3.248,3.248,0,1,1-3.248-3.248,3.248,3.248,0,0,1,3.248,3.248Z" transform="translate(-680.316 -989.577)" fill="#2b2c31"/>
        <rect id="Rectangle_2815" data-name="Rectangle 2815" width="198.004" height="17.579" rx="8.789" transform="translate(57.903 135.969)" fill="#f8f8fe"/>
        <path id="Path_16581" data-name="Path 16581" d="M753.884,1347.8H569.8a7.626,7.626,0,0,1-7.618-7.618v-3.656a7.626,7.626,0,0,1,7.618-7.617H753.884a7.626,7.626,0,0,1,7.618,7.617v3.656a7.626,7.626,0,0,1-7.618,7.618ZM569.8,1330.224a6.313,6.313,0,0,0-6.3,6.3v3.656a6.313,6.313,0,0,0,6.3,6.3H753.884a6.313,6.313,0,0,0,6.3-6.3v-3.656a6.313,6.313,0,0,0-6.3-6.3Z" transform="translate(-504.938 -1193.598)" fill="#2b2c31"/>
        <rect id="Rectangle_2816" data-name="Rectangle 2816" width="73.054" height="73.054" transform="translate(57.999 165.575)" fill="#f8f8fe"/>
        <path id="Path_16582" data-name="Path 16582" d="M636.779,1693.291H562.22V1618.73h74.559Zm-73.054-1.508h71.549v-71.549H563.725Z" transform="translate(-504.974 -1453.908)" fill="#686874"/>
        <path id="Path_16583" data-name="Path 16583" d="M679.611,1736.084H616V1672.47h63.615Z" transform="translate(-553.277 -1502.176)" fill="#cbdb88"/>
        <path id="Path_16821" data-name="Path 16821" d="M0,0H57.155V57.106H0Z" transform="translate(83.331 208.669) rotate(180)" fill="#e3ebbd"/>
        <path id="Path_16584" data-name="Path 16584" d="M247.52,1499.5h63.471V1436.08H247.52Zm61.523-1.948H249.468v-59.522h59.575Z" transform="translate(-222.317 -1289.856)" fill="#686874"/>
        <path id="Path_16585" data-name="Path 16585" d="M435.6,1587.594H379.849a1.218,1.218,0,0,1,0-2.435H435.6A1.218,1.218,0,0,1,435.6,1587.594Z" transform="translate(-340.116 -1423.756)" fill="#686874"/>
        <path id="Path_16586" data-name="Path 16586" d="M365.556,1723.874H322.469a1.218,1.218,0,0,1,0-2.434h43.087A1.218,1.218,0,0,1,365.556,1723.874Z" transform="translate(-288.579 -1546.16)" fill="#686874"/>
        <path id="Path_16587" data-name="Path 16587" d="M485.816,1812.344H456.363a1.218,1.218,0,0,1,0-2.435h29.453A1.218,1.218,0,0,1,485.816,1812.344Z" transform="translate(-408.838 -1625.621)" fill="#686874"/>
        <rect id="Rectangle_2818" data-name="Rectangle 2818" width="82.309" height="6.327" transform="translate(145.936 172.805)" fill="#ebf4c8"/>
        <rect id="Rectangle_2819" data-name="Rectangle 2819" width="89.354" height="6.327" transform="translate(163.235 186.616)" fill="#ebf4c8"/>
        <rect id="Rectangle_2820" data-name="Rectangle 2820" width="106.652" height="6.327" transform="translate(145.936 200.427)" fill="#ebf4c8"/>
        <rect id="Rectangle_2821" data-name="Rectangle 2821" width="106.652" height="6.327" transform="translate(145.936 214.239)" fill="#b6d143"/>
        <rect id="Rectangle_2822" data-name="Rectangle 2822" width="45.62" height="6.327" transform="translate(145.936 228.05)" fill="#b6d143"/>
        <path id="Path_16588" data-name="Path 16588" d="M1810.028,279.931a111.522,111.522,0,0,1-22.706-16.711,111.271,111.271,0,0,1-62.4,29.8v75.462a100.2,100.2,0,0,0,5.838,12.747,97.4,97.4,0,0,0,9.634,14.421c16.211,20.111,36.418,28.7,46.928,32.24,23.538-10.245,39.683-23.251,46.927-32.24a97.321,97.321,0,0,0,9.636-14.421,100.116,100.116,0,0,0,5.839-12.747V293.019A112.135,112.135,0,0,1,1810.028,279.931Z" transform="translate(-1549.285 -236.418)" fill="#deeaa9"/>
        <path id="Path_16589" data-name="Path 16589" d="M1780.951,419.889l-.264-.09c-13.2-4.437-32.109-13.674-47.26-32.471a98.356,98.356,0,0,1-9.71-14.528,101.132,101.132,0,0,1-5.88-12.84l-.047-.123V283.61l.629-.083a110.6,110.6,0,0,0,62-29.6l.5-.475.5.475a110.552,110.552,0,0,0,62,29.606l.628.084v76.228l-.046.123a101.279,101.279,0,0,1-5.88,12.84,98.36,98.36,0,0,1-9.707,14.528c-7.143,8.859-23.294,22.043-47.2,32.45Zm-61.7-60.315a99.767,99.767,0,0,0,5.75,12.532,96.972,96.972,0,0,0,9.563,14.314,101.1,101.1,0,0,0,46.329,31.918c23.527-10.284,39.388-23.215,46.4-31.918a96.983,96.983,0,0,0,9.555-14.314,99.565,99.565,0,0,0,5.749-12.532v-74.7a111.938,111.938,0,0,1-61.672-29.436,111.979,111.979,0,0,1-61.677,29.435Z" transform="translate(-1542.881 -227.643)" fill="#686874"/>
        <path id="Path_16590" data-name="Path 16590" d="M1932.3,463.37a85.654,85.654,0,0,1-17.446-12.84,85.5,85.5,0,0,1-47.945,22.9v57.981a76.934,76.934,0,0,0,4.48,9.794,74.8,74.8,0,0,0,7.4,11.08,78.432,78.432,0,0,0,36.057,24.771c18.086-7.872,30.491-17.864,36.056-24.771a74.7,74.7,0,0,0,7.409-11.083,76.923,76.923,0,0,0,4.485-9.794V473.427A86.149,86.149,0,0,1,1932.3,463.37Z" transform="translate(-1676.817 -404.656)" fill="#f7f7fe"/>
        <path id="Path_16591" data-name="Path 16591" d="M2241.616,772.62h-8.254a7.252,7.252,0,0,0-7.243,7.243v9.818h22.74v-9.818A7.252,7.252,0,0,0,2241.616,772.62Zm-12.13,7.243a3.878,3.878,0,0,1,3.876-3.876h8.254a3.879,3.879,0,0,1,3.876,3.876v8.084h-16.006Z" transform="translate(-1999.452 -693.95)" fill="#2b2c31"/>
        <path id="Path_16592" data-name="Path 16592" d="M2178,926.94v26.168a4.326,4.326,0,0,0,4.322,4.318h23.89a4.326,4.326,0,0,0,4.323-4.318V926.94Zm31.192,26.168a2.981,2.981,0,0,1-2.98,2.972h-23.888a2.979,2.979,0,0,1-2.978-2.972V928.287h29.848Z" transform="translate(-1956.232 -832.557)" fill="#2b2c31"/>
        <path id="Path_16593" data-name="Path 16593" d="M2311.892,1010.323a2.879,2.879,0,0,0-1.092-5.543h-.4a2.879,2.879,0,0,0-1.092,5.543l-.958,7.439c-.112.87.342,1.655.99,1.655h2.518c.649,0,1.1-.784.99-1.655Z" transform="translate(-2072.563 -902.471)" fill="#2b2c31"/>
        <path id="Path_16594" data-name="Path 16594" d="M2099.11,1357.755a3.055,3.055,0,1,1-3.055-3.055A3.055,3.055,0,0,1,2099.11,1357.755Z" transform="translate(-1879.887 -1216.762)" fill="#686874"/>
        <path id="Path_16595" data-name="Path 16595" d="M2206.529,1357.755a3.054,3.054,0,1,1-.9-2.162A3.055,3.055,0,0,1,2206.529,1357.755Z" transform="translate(-1976.369 -1216.762)" fill="#686874"/>
        <path id="Path_16596" data-name="Path 16596" d="M2313.929,1357.755a3.055,3.055,0,1,1-3.054-3.055A3.054,3.054,0,0,1,2313.929,1357.755Z" transform="translate(-2072.833 -1216.762)" fill="#686874"/>
        <path id="Path_16597" data-name="Path 16597" d="M2421.339,1357.755a3.055,3.055,0,1,1-.9-2.162A3.055,3.055,0,0,1,2421.339,1357.755Z" transform="translate(-2169.307 -1216.762)" fill="#686874"/>
        <path id="Path_16598" data-name="Path 16598" d="M2528.739,1357.755a3.055,3.055,0,1,1-3.054-3.055A3.055,3.055,0,0,1,2528.739,1357.755Z" transform="translate(-2265.771 -1216.762)" fill="#686874"/>
        <path id="Path_16599" data-name="Path 16599" d="M390.728,2898.983H294.554a2.558,2.558,0,0,1-2.554-2.554v-27.234a2.558,2.558,0,0,1,2.554-2.555h96.174a2.559,2.559,0,0,1,2.554,2.555v27.234A2.558,2.558,0,0,1,390.728,2898.983Zm-96.174-31.013a1.222,1.222,0,0,0-1.222,1.222v27.233a1.222,1.222,0,0,0,1.222,1.222h96.174a1.222,1.222,0,0,0,1.222-1.222v-27.231a1.222,1.222,0,0,0-1.222-1.222Z" transform="translate(-262.268 -2574.753)" fill="#686874"/>
        <rect id="Rectangle_2823" data-name="Rectangle 2823" width="23.09" height="23.09" transform="translate(34.437 296.514)" fill="#c0d85a"/>
        <path id="Path_16600" data-name="Path 16600" d="M593.81,2944.812h60.122a.831.831,0,0,0,0-1.662H593.81A.831.831,0,0,0,593.81,2944.812Z" transform="translate(-532.626 -2643.473)" fill="#686874"/>
        <path id="Path_16601" data-name="Path 16601" d="M598.16,3030.4h43.187a.832.832,0,0,0,0-1.662h-4.189a.832.832,0,0,0,0,1.662h4.189a.832.832,0,0,0,0-1.662H598.16A.832.832,0,0,0,598.16,3030.4Z" transform="translate(-536.533 -2720.347)" fill="#686874"/>
        <rect id="Rectangle_2824" data-name="Rectangle 2824" width="115.63" height="82.353" rx="8.07" transform="translate(50.936 4.698)" fill="#fff"/>
        <path id="Path_16602" data-name="Path 16602" d="M608.65,125.666H500.888a4.238,4.238,0,0,1-4.308-4.154V46.743a4.239,4.239,0,0,1,4.308-4.153H608.65a4.238,4.238,0,0,1,4.308,4.153v74.768A4.238,4.238,0,0,1,608.65,125.666ZM500.888,43.312a3.5,3.5,0,0,0-3.564,3.431v74.768a3.5,3.5,0,0,0,3.564,3.431H608.65a3.505,3.505,0,0,0,3.564-3.431V46.743a3.5,3.5,0,0,0-3.564-3.431Z" transform="translate(-446.017 -38.253)" fill="#686874"/>
        <path id="Path_16603" data-name="Path 16603" d="M500.679,143.177h42.512a.339.339,0,1,0,0-.677h-2a.339.339,0,1,0,0,.677h74.259a.339.339,0,1,0,0-.677H541.19a.339.339,0,1,0,0,.677h2a.339.339,0,1,0,0-.677H500.679A.339.339,0,1,0,500.679,143.177Z" transform="translate(-449.394 -127.99)" fill="#686874"/>
        <path id="Path_16604" data-name="Path 16604" d="M1461.168,82.352a1.337,1.337,0,1,1,1.386-1.336A1.362,1.362,0,0,1,1461.168,82.352Zm0-2.252a.916.916,0,1,0,.95.916A.934.934,0,0,0,1461.168,80.1Z" transform="translate(-1311.232 -71.566)" fill="#686874"/>
        <ellipse id="Ellipse_223" data-name="Ellipse 223" cx="1.168" cy="1.126" rx="1.168" ry="1.126" transform="translate(152.909 8.324)" fill="#aeaeb7"/>
        <path id="Path_16605" data-name="Path 16605" d="M1501.829,82.351a1.337,1.337,0,1,1,1.385-1.336A1.363,1.363,0,0,1,1501.829,82.351Zm0-2.252a.916.916,0,1,0,.95.916A.935.935,0,0,0,1501.829,80.1Z" transform="translate(-1347.752 -71.565)" fill="#686874"/>
        <ellipse id="Ellipse_224" data-name="Ellipse 224" cx="1.168" cy="1.126" rx="1.168" ry="1.126" transform="translate(157.049 8.324)" fill="#686874"/>
        <path id="Path_16606" data-name="Path 16606" d="M1542.5,82.352a1.337,1.337,0,1,1,1.385-1.336A1.362,1.362,0,0,1,1542.5,82.352Zm0-2.252a.916.916,0,1,0,.95.916A.935.935,0,0,0,1542.5,80.1Z" transform="translate(-1384.281 -71.566)" fill="#686874"/>
        <path id="Path_16607" data-name="Path 16607" d="M909,312.047V295.689a2.127,2.127,0,0,1,3.216-1.758l14.4,8.3a2.012,2.012,0,0,1-.023,3.53l-14.4,8.062A2.123,2.123,0,0,1,909,312.047Z" transform="translate(-816.444 -263.738)" fill="#d6ed75"/>
        <path id="Path_16608" data-name="Path 16608" d="M892.527,322.042a2.394,2.394,0,0,1-2.4-2.342l-.2-17.075a2.328,2.328,0,0,1,.7-1.707,2.4,2.4,0,0,1,2.893-.363l14.709,8.5a2.356,2.356,0,0,1,.023,4.078l-14.5,8.573A2.412,2.412,0,0,1,892.527,322.042Zm-.211-21.357a1.957,1.957,0,0,0-1.351.553,1.88,1.88,0,0,0-.567,1.381l.2,17.075a1.927,1.927,0,0,0,1.922,1.89,1.884,1.884,0,0,0,.974-.271L908,312.73a1.9,1.9,0,0,0-.018-3.292l-14.709-8.493A1.9,1.9,0,0,0,892.317,300.685Z" transform="translate(-799.312 -269.66)" fill="#686874"/>
        <rect id="Rectangle_2825" data-name="Rectangle 2825" width="86.934" height="5.575" transform="translate(60.58 6.342)" fill="#e0f295"/>
        <rect id="Rectangle_2826" data-name="Rectangle 2826" width="0.668" height="72.543" transform="translate(143.765 14.705)" fill="#686874"/>
        <path id="Path_16820" data-name="Path 16820" d="M0,0H20.071V10.44H0Z" transform="translate(145.17 19.746)" fill="#adca31"/>
        <rect id="Rectangle_2828" data-name="Rectangle 2828" width="20.071" height="10.44" transform="translate(145.17 32.537)" fill="#cee372"/>
        <rect id="Rectangle_2829" data-name="Rectangle 2829" width="20.238" height="10.44" transform="translate(145.17 45.328)" fill="#e7f5ad"/>
        <rect id="Rectangle_2830" data-name="Rectangle 2830" width="20.238" height="10.44" transform="translate(145.17 58.119)" fill="#f1facc"/>
        <rect id="Rectangle_2831" data-name="Rectangle 2831" width="20.071" height="10.44" transform="translate(145.17 70.909)" fill="#f8ffdd"/>
        <rect id="Rectangle_2832" data-name="Rectangle 2832" width="93.153" height="0.668" transform="translate(50.946 68.225)" fill="#686874"/>
        <ellipse id="Ellipse_225" data-name="Ellipse 225" cx="4.231" cy="4.231" rx="4.231" ry="4.231" transform="translate(58.354 71.439)" fill="#adca31"/>
        <rect id="Rectangle_2833" data-name="Rectangle 2833" width="24.066" height="2.394" transform="translate(70.418 71.438)" fill="#cee372"/>
        <rect id="Rectangle_2834" data-name="Rectangle 2834" width="57.635" height="2.394" transform="translate(70.418 75.67)" fill="#cee372"/>
        <rect id="Rectangle_2835" data-name="Rectangle 2835" width="21.644" height="2.394" transform="translate(70.418 79.901)" fill="#cee372"/>
        <rect id="Rectangle_2836" data-name="Rectangle 2836" width="36.926" height="2.394" transform="translate(131.409 82.295) rotate(180)" fill="#cee372"/>
        <path id="Path_16609" data-name="Path 16609" d="M1976.362,3667.2a10.208,10.208,0,0,1-7.394-2.965,6.663,6.663,0,0,1-1.992-4.786c.13-2.946,2.771-6.072,4.969-5.774,2.428.319,4.158,4.694,5.142,13l.06.509-.509.011Zm-4.711-12.615c-1.51,0-3.639,2.427-3.749,4.908a5.734,5.734,0,0,0,1.736,4.1,9.229,9.229,0,0,0,6.467,2.677c-.9-7.19-2.452-11.435-4.277-11.675A1.423,1.423,0,0,0,1971.651,3654.585Z" transform="translate(-1766.69 -3281.632)" fill="#c9d986"/>
        <path id="Path_16610" data-name="Path 16610" d="M2071.012,3681.557l-.134-.673c-.9-4.541.4-8.742,3.308-10.7a8.288,8.288,0,0,1,4.307-1.373,2.257,2.257,0,0,1,1.967.757c1.481,2.192-4.887,8.385-4.952,8.451-.368.355-1.513,1.379-2.282,1.986-.2.16-.4.305-.4.305q-.61.458-1.24.873Zm7.482-11.821a7.405,7.405,0,0,0-3.79,1.216c-2.452,1.652-3.608,5.156-3.036,9.055.2-.143.407-.289.6-.438,0,0,.19-.142.384-.3.734-.578,1.865-1.589,2.213-1.924,2.056-1.986,5.526-6.229,4.829-7.261a1.52,1.52,0,0,0-1.2-.354Z" transform="translate(-1859.765 -3295.244)" fill="#c9d986"/>
        <path id="Path_16611" data-name="Path 16611" d="M2086.631,3787.789a3.015,3.015,0,0,1-2.45-2.138,2.575,2.575,0,0,1,.181-1.887,2.369,2.369,0,0,0,.244-1.172c-.187-2.044-3.66-3.3-3.695-3.311a7.529,7.529,0,0,0-5.524.354l-.388-.835a8.472,8.472,0,0,1,6.221-.386c.416.147,4.072,1.516,4.308,4.1a3.232,3.232,0,0,1-.305,1.6,1.714,1.714,0,0,0-.157,1.27c.277.892,1.256,1.589,1.647,1.472.125-.039.256-.222.407-.436a2.623,2.623,0,0,1,1.409-1.136,2.546,2.546,0,0,1,.316-.072l.147.916a1.659,1.659,0,0,0-.2.045,1.75,1.75,0,0,0-.923.788,1.742,1.742,0,0,1-.9.783A1.214,1.214,0,0,1,2086.631,3787.789Z" transform="translate(-1863.719 -3393.302)" fill="#c9d986"/>
        <path id="Path_16612" data-name="Path 16612" d="M828.736,3667.2a10.208,10.208,0,0,0,7.393-2.965,6.663,6.663,0,0,0,1.992-4.786c-.13-2.946-2.772-6.072-4.969-5.774-2.428.319-4.158,4.694-5.142,13l-.06.509.509.011C828.552,3667.2,828.644,3667.2,828.736,3667.2Zm4.711-12.615c1.509,0,3.638,2.427,3.748,4.908a5.749,5.749,0,0,1-1.731,4.1,9.231,9.231,0,0,1-6.468,2.677c.9-7.19,2.452-11.435,4.277-11.675A1.657,1.657,0,0,1,833.447,3654.585Z" transform="translate(-743.646 -3281.632)" fill="#357de5"/>
        <path id="Path_16613" data-name="Path 16613" d="M734.881,3681.557l.133-.673c.9-4.541-.4-8.742-3.308-10.7a8.287,8.287,0,0,0-4.306-1.373,2.261,2.261,0,0,0-1.968.757c-1.481,2.192,4.887,8.385,4.953,8.451.367.355,1.512,1.379,2.281,1.986.2.16.4.305.4.305.407.305.815.6,1.238.873Zm-7.481-11.821a7.4,7.4,0,0,1,3.789,1.216c2.452,1.652,3.61,5.156,3.036,9.055-.2-.143-.407-.289-.6-.438,0,0-.189-.142-.384-.3-.734-.578-1.865-1.589-2.212-1.924-2.057-1.986-5.527-6.229-4.829-7.261.148-.223.6-.354,1.2-.354Z" transform="translate(-651.366 -3295.244)" fill="#c9d986"/>
        <path id="Path_16614" data-name="Path 16614" d="M684.8,3787.734a3.013,3.013,0,0,0,2.451-2.138,2.576,2.576,0,0,0-.182-1.887,2.365,2.365,0,0,1-.243-1.172c.186-2.044,3.66-3.3,3.694-3.311a7.537,7.537,0,0,1,5.524.354l.388-.841a8.475,8.475,0,0,0-6.221-.386c-.415.147-4.073,1.516-4.308,4.1a3.25,3.25,0,0,0,.306,1.6,1.719,1.719,0,0,1,.158,1.27c-.278.892-1.256,1.589-1.647,1.473-.125-.038-.257-.222-.407-.436a2.617,2.617,0,0,0-1.408-1.136,2.43,2.43,0,0,0-.317-.073l-.147.917a1.8,1.8,0,0,1,.2.045,1.749,1.749,0,0,1,.922.789,1.747,1.747,0,0,0,.9.783A1.2,1.2,0,0,0,684.8,3787.734Z" transform="translate(-612.953 -3393.248)" fill="#c9d986"/>
        <path id="Path_16615" data-name="Path 16615" d="M696.212,1931.819l43.875-26.239a41.066,41.066,0,0,1,12,7.8,42.139,42.139,0,0,1,8.028,10.284l-50.746,30.706a12.852,12.852,0,0,1-16.729-3.834C688.693,1944.764,690.126,1936.209,696.212,1931.819Z" transform="translate(-620.129 -1711.55)" fill="#bdb6ff"/>
        <path id="Path_16616" data-name="Path 16616" d="M779.56,2624.173h51.135q6.822-40.841,13.653-81.679l4.48-26.787a4.308,4.308,0,0,0,2.8-1.323c3.644-4.187-1.052-20.271-11.106-25.75a14.88,14.88,0,0,0-5.123-1.714c-6.975-.959-14.315,3.325-19.178,10.115Q797.9,2560.606,779.56,2624.173Z" transform="translate(-700.184 -2233.577)" fill="#95ac36"/>
        <rect id="Rectangle_2837" data-name="Rectangle 2837" width="93.8" height="1.852" transform="translate(129.174 390.282) rotate(-80.36)" fill="#2b2c31"/>
        <rect id="Rectangle_2838" data-name="Rectangle 2838" width="103.02" height="1.852" transform="matrix(0.178, -0.984, 0.984, 0.178, 120.584, 387.34)" fill="#2b2c31"/>
        <path id="Path_16617" data-name="Path 16617" d="M1095.861,1746.66a26.812,26.812,0,1,0,34.713-15.271A26.816,26.816,0,0,0,1095.861,1746.66Z" transform="translate(-982.635 -1553.452)" fill="#adca31"/>
        <ellipse id="Ellipse_226" data-name="Ellipse 226" cx="30.395" cy="24.58" rx="30.395" ry="24.58" transform="translate(113.982 247.491)" fill="#95ac36"/>
        <path id="Path_16618" data-name="Path 16618" d="M1322.973,2464.805q4.661,18.375,9.333,36.74,10.371,40.841,20.748,81.678h47.332q-19.327-63.564-38.638-127.139c-3.02-9.448-11.792-15.483-20.54-14.843a19.227,19.227,0,0,0-12.722,6.442A21.869,21.869,0,0,0,1322.973,2464.805Z" transform="translate(-1188.142 -2192.628)" fill="#95ac36"/>
        <rect id="Rectangle_2839" data-name="Rectangle 2839" width="1.853" height="143.009" transform="translate(157.979 251.538) rotate(-17.36)" fill="#2b2c31"/>
        <path id="Path_16619" data-name="Path 16619" d="M1644.8,2614.8a9.261,9.261,0,0,0,6.186-2.733,9.512,9.512,0,0,0,1.752-9.856l-1.731.651a7.641,7.641,0,0,1-1.359,7.928,7.381,7.381,0,0,1-4.93,2.158Z" transform="translate(-1477.251 -2337.248)" fill="#2b2c31"/>
        <rect id="Rectangle_2840" data-name="Rectangle 2840" width="1.852" height="120.823" transform="matrix(0.952, -0.307, 0.307, 0.952, 171.592, 275.129)" fill="#2b2c31"/>
        <path id="Path_16620" data-name="Path 16620" d="M1546.164,1575.632l-43.43,26.969a41.039,41.039,0,0,0,1.439,14.239,42.154,42.154,0,0,0,5.459,11.847l50.557-31.027a12.853,12.853,0,0,0,4.26-16.627C1561.116,1574.881,1552.857,1572.235,1546.164,1575.632Z" transform="translate(-1349.62 -1413.856)" fill="#3f6eb2"/>
        <path id="Path_16621" data-name="Path 16621" d="M1509.268,1563.382l-46.634,22.875c-.5.96-5.716,11.356-.232,21.648a23.023,23.023,0,0,0,11.954,10.4l52.9-30.929a17.605,17.605,0,0,0-2.639-17.754C1518.819,1562.566,1509.965,1563.311,1509.268,1563.382Z" transform="translate(-1311.261 -1404.145)" fill="#adca31"/>
        <path id="Path_16622" data-name="Path 16622" d="M810.361,1911.21l38.1-23.853c.472-1.044,5.136-11.835-.959-22.061a23.879,23.879,0,0,0-13.154-10.246l-31.816,22.023Q806.447,1894.145,810.361,1911.21Z" transform="translate(-720.815 -1666.165)" fill="#adca31"/>
        <circle id="Ellipse_227" data-name="Ellipse 227" cx="11.263" cy="11.263" r="11.263" transform="translate(120.632 155.602) rotate(-45)" fill="#f8ffdb"/>
        <path id="Path_16623" data-name="Path 16623" d="M1164.373,1365.771c-4.457,5.96-2.578,15.884,3.1,19.472a10.791,10.791,0,0,0,5.877,1.551c4.351-2.083,5.978-4.438,6.654-6.22.665-1.751,1.324-4.666,3.642-7.07a3.112,3.112,0,0,1,.678-.547c2.839-1.783,7.3,1.018,8.592,1.873,1.382-5.04.121-9.91-2.881-12.087a9.129,9.129,0,0,0-6.044-1.725,7.265,7.265,0,0,0-1.89.521,16.359,16.359,0,0,0-4.887-.978C1176.134,1360.514,1168.463,1360.3,1164.373,1365.771Z" transform="translate(-1043.591 -1222.013)" fill="#2b2c31"/>
        <path id="Path_16624" data-name="Path 16624" d="M1324,1476.669c.018,1.644.926,2.967,2.029,2.953s1.981-1.355,1.962-3-.927-2.967-2.029-2.953S1323.983,1475.026,1324,1476.669Z" transform="translate(-1189.186 -1323.617)" fill="#f8ffdb"/>
        <path id="Path_16625" data-name="Path 16625" d="M1931.787,1296.252q-13.38,21.517-26.76,43.032c-4.352,6.755-13.37,8.386-19.332,4.143a13.752,13.752,0,0,1-3.727-17.673l34.912-33.484Z" transform="translate(-1688.799 -1160.688)" fill="#f8ffdb"/>
        <path id="Path_16626" data-name="Path 16626" d="M2248.358,1128a10.179,10.179,0,0,1,2.575,1.126c.993.5,1.853.984,2.071,1.12,1.935,1.212,3.187,6.221,2.145,10.806-.879,3.869-4.229,11.111-10.357,11.135-6.048.024-11.186-7-10.028-10.26.917-2.587,5.193-1.084,8.631-4.976C2246.588,1133.333,2246.382,1128.075,2248.358,1128Z" transform="translate(-2007.067 -1013.143)" fill="#f8ffdb"/>
        <path id="Path_16627" data-name="Path 16627" d="M2238.387,1161.865c2.678-2.427,3.443-2.558,3.7-2.363.407.313-.433,1.519-1.272,4.8-.589,2.3-.519,3.055-1.342,4.351a4.657,4.657,0,0,1-2.434,2.12c-.192.061-1.478.465-2,0C2234.418,1170.228,2234.637,1168.239,2238.387,1161.865Z" transform="translate(-2007.223 -1041.383)" fill="#f8ffdb"/>
        <path id="Path_16628" data-name="Path 16628" d="M2398.63,1149.427a17.369,17.369,0,0,1-1.262,9.1.58.58,0,0,0,1.073.439,18.544,18.544,0,0,0,1.338-9.685A.579.579,0,0,0,2398.63,1149.427Z" transform="translate(-2153.219 -1031.822)" fill="#deeaa9"/>
        <path id="Path_16629" data-name="Path 16629" d="M2363.275,1134.5q-1.173,4.693-2.744,9.266c-.24.7.829,1.147,1.073.439q1.615-4.715,2.819-9.552C2364.6,1133.934,2363.454,1133.788,2363.275,1134.5Z" transform="translate(-2120.146 -1018.565)" fill="#deeaa9"/>
        <path id="Path_16630" data-name="Path 16630" d="M605.8,3763.972h69.85v-17.694c-3.756-2-28.96-14.829-52.564,0A56.272,56.272,0,0,0,605.8,3763.972Z" transform="translate(-544.116 -3358.486)" fill="#e3f2a4"/>
        <path id="Path_16631" data-name="Path 16631" d="M1679.16,3763.972h-69.85v-17.694c3.755-2,28.959-14.829,52.563,0A56.244,56.244,0,0,1,1679.16,3763.972Z" transform="translate(-1445.447 -3358.486)" fill="#e3f2a4"/>
        <path id="Path_16632" data-name="Path 16632" d="M1495.9,2045.829a8.086,8.086,0,0,1-4.769-2.535c-.541-.626-.8-1.17-2.058-3.912-.43-.936-1.06-2.312-1.833-4l.687,19.21a22.4,22.4,0,0,0,7.971-8.757Z" transform="translate(-1335.806 -1828.134)" fill="#adca31"/>
        <path id="Path_16633" data-name="Path 16633" d="M1898.865,1304.7l20.392,17.993-28.306,32.867c-6.241,5.137-15.19,4.836-20.632-.24-6.11-5.7-6.4-16.108.06-22.581Z" transform="translate(-1675.671 -1171.853)" fill="#adca31"/>
        <path id="Path_16634" data-name="Path 16634" d="M444.74,1871.531l23.9,44.689c3.9,7.026,12.8,9.24,19.02,5.4a13.753,13.753,0,0,0,4.871-17.393l-32.65-35.693Z" transform="translate(-399.456 -1678.272)" fill="#f8ffdb"/>
        <path id="Path_16635" data-name="Path 16635" d="M410.487,1718.256c-.3-.928-2.156-1.336-3.62-1.2-3.719.345-7.117,5.6-7.149,10.431-.034,5.162,3.767,11.383,9.61,11.787,6.123.425,11.57-6.219,10.675-9.584-.529-1.994-3.534-3.79-5.105-3.148-.739.306-.7.953-1.6,1.336a3.919,3.919,0,0,1-4.113-1.189,4.884,4.884,0,0,1-.887-4.189C408.834,1720.089,410.828,1719.318,410.487,1718.256Z" transform="translate(-359.018 -1542.199)" fill="#f8ffdb"/>
        <path id="Path_16636" data-name="Path 16636" d="M546.565,1753.172c-.093-.226-.234-.458-.455-.509-.652-.153-1.788,1.31-2.124,2.783a6.207,6.207,0,0,0,1.056,4.429,4.64,4.64,0,0,0,2.29,2.275c.188.073,1.446.559,1.995.133C549.982,1761.776,549.892,1759.777,546.565,1753.172Z" transform="translate(-488.5 -1574.193)" fill="#f8ffdb"/>
        <path id="Path_16637" data-name="Path 16637" d="M433.1,1725.671a6.937,6.937,0,0,1-1.432-6.972,6.323,6.323,0,0,1,2.437-2.94l.522.792a5.381,5.381,0,0,0-2.076,2.494,5.987,5.987,0,0,0,1.271,6.007Z" transform="translate(-387.344 -1541.058)" fill="#deeaa9"/>
        <path id="Path_16638" data-name="Path 16638" d="M401.253,1769.089a5.767,5.767,0,0,1-1.235-1.678c-1.3-2.68-.015-5.477.407-6.271l.837.446a6.27,6.27,0,0,0-.39,5.412,4.783,4.783,0,0,0,1.036,1.4Z" transform="translate(-358.78 -1581.817)" fill="#deeaa9"/>
        <path id="Path_16639" data-name="Path 16639" d="M440.45,1884.7l18.78-13.5,24.618,24.2c10.358,7.9,10.828,21.734,4.311,28.136-4.808,4.723-13.579,5.561-21.19,1.538Q453.708,1904.89,440.45,1884.7Z" transform="translate(-395.603 -1680.67)" fill="#adca31"/>
        <path id="Path_16640" data-name="Path 16640" d="M1043.319,1420.65a110.685,110.685,0,0,0-8.443,41.662c-.736,2.545-1.977,6.559-3.854,11.379-2.593,6.66-3.71,7.972-3.3,9.543.814,3.133,7.4,6.19,34.137,5.139q-.814-15.26-1.468-30.833-.525-12.576-.917-24.961a23.4,23.4,0,0,0-8.443-8.993A23.006,23.006,0,0,0,1043.319,1420.65Z" transform="translate(-923.002 -1275.997)" fill="#2b2c31"/>
        <path id="Path_16641" data-name="Path 16641" d="M2050.23,1391.891v16.918a1.2,1.2,0,0,0,2.394,0v-16.918A1.2,1.2,0,0,0,2050.23,1391.891Z" transform="translate(-1841.471 -1249.128)" fill="#f1f8d1"/>
        <path id="Path_16642" data-name="Path 16642" d="M1857.562,1747.71h-25.217a1.2,1.2,0,0,0,0,2.395h25.217A1.2,1.2,0,0,0,1857.562,1747.71Z" transform="translate(-1644.733 -1569.755)" fill="#f1f8d1"/>
        <path id="Path_16643" data-name="Path 16643" d="M1689.72,1648.951v14.683a1.2,1.2,0,0,0,2.394,0v-14.683A1.2,1.2,0,0,0,1689.72,1648.951Z" transform="translate(-1517.669 -1480.013)" fill="#f1f8d1"/>
        <path id="Path_16644" data-name="Path 16644" d="M1561.521,1940.962l13.087,13.087a1.2,1.2,0,0,0,1.693-1.692l-13.087-13.087A1.2,1.2,0,0,0,1561.521,1940.962Z" transform="translate(-1402.207 -1741.493)" fill="#f1f8d1"/>
        <path id="Path_16645" data-name="Path 16645" d="M839.822,1936.141l-15,15a1.2,1.2,0,0,0,1.692,1.693l15-15A1.2,1.2,0,0,0,839.822,1936.141Z" transform="translate(-740.518 -1738.683)" fill="#f1f8d1"/>
        <path id="Path_16646" data-name="Path 16646" d="M809.141,2188.592l9.257,9.257a1.2,1.2,0,0,0,1.693-1.692l-9.257-9.261a1.2,1.2,0,0,0-1.693,1.693Z" transform="translate(-726.436 -1963.904)" fill="#f1f8d1"/>
        <path id="Path_16647" data-name="Path 16647" d="M615,1939.29l-9.571,9.571a1.2,1.2,0,0,0,1.694,1.693l9.571-9.572a1.2,1.2,0,0,0-1.692-1.692Z" transform="translate(-543.463 -1741.512)" fill="#f1f8d1"/>
        <path id="Path_16648" data-name="Path 16648" d="M418.5,2025.984h11.172a1.2,1.2,0,0,0,0-2.394H418.5A1.2,1.2,0,0,0,418.5,2025.984Z" transform="translate(-374.85 -1817.544)" fill="#f1f8d1"/>
        <path id="Path_16649" data-name="Path 16649" d="M613.782,2202.513l-8.3,8.618c-1.069,1.11.622,2.805,1.693,1.693l8.3-8.62C616.544,2203.1,614.853,2201.4,613.782,2202.513Z" transform="translate(-543.525 -1977.922)" fill="#f1f8d1"/>
        <path id="Path_16650" data-name="Path 16650" d="M24.007,166.107H0V142.1H24.007Zm-22.57-1.436H22.571V143.536H1.437Z" transform="translate(0 -127.631)" fill="#5e5e69"/>
        <path id="Path_16651" data-name="Path 16651" d="M2772.9,7.9H2765V0h7.9Zm-6.464-1.437h5.028V1.437h-5.028Z" transform="translate(-2483.462)" fill="#5e5e69"/>
        <path id="Path_16652" data-name="Path 16652" d="M2232.2,2860.7H2218v-14.2h14.2Zm-12.767-1.436h11.332v-11.331h-11.332Z" transform="translate(-1992.158 -2556.664)" fill="#5e5e69"/>
        <path id="Path_16653" data-name="Path 16653" d="M1147.017,4212.237H1132.43V4197.65h14.587Zm-13.15-1.438h11.709V4199.09h-11.709Z" transform="translate(-1017.124 -3770.237)" fill="#5e5e69"/>
      </g>
    </g>
  </g>
</svg>
