<svg xmlns="http://www.w3.org/2000/svg" width="540" height="609" viewBox="0 0 540 609">
  <g id="BG_Sign_in" data-name="BG_Sign in" transform="translate(-683 -80)">
    <path id="Rectangle_2776" data-name="Rectangle 2776" d="M0,0H524a16,16,0,0,1,16,16V593a16,16,0,0,1-16,16H0a0,0,0,0,1,0,0V0A0,0,0,0,1,0,0Z" transform="translate(683 80)" fill="rgba(173,202,49,0.1)"/>
    <g id="Layer_2" data-name="Layer 2" transform="translate(787.117 163)">
      <g id="Layer_1" data-name="Layer 1">
        <path id="Path_16511" data-name="Path 16511" d="M1760.56,1062.128q-5.43-8.379-10.859-16.758c.2-3.354,1.7-6.036,3.891-6.733a4.114,4.114,0,0,1,1.82-.138,50.758,50.758,0,0,1,5.419,4.782,51.617,51.617,0,0,1,9.856,14.223Z" transform="translate(-1561.742 -926.899)" fill="#f8ffdb"/>
        <path id="Path_16512" data-name="Path 16512" d="M1732.79,1082.34q7.861,9.424,15.725,18.847c5.593,8.886,15.992,10.038,20.366,6.156,3.677-3.262,4.281-11.131-.273-17.782l-22.535-26.152Z" transform="translate(-1546.648 -949.175)" fill="#95ac36"/>
        <path id="Path_16513" data-name="Path 16513" d="M1603.348,984.044l-19.627-8.473a11.089,11.089,0,0,1,14.559-5.822l9.045,6.673Z" transform="translate(-1413.592 -864.769)" fill="#f8ffdb"/>
        <path id="Path_16514" data-name="Path 16514" d="M1630.43,1013.828l-.429-.289c1.866-2.765,4.538-4.644,6.5-4.568a10.607,10.607,0,0,1,3.151.734,9.407,9.407,0,0,1,1,.477l-.249.452a9.1,9.1,0,0,0-.943-.452,10.13,10.13,0,0,0-2.974-.695C1635.017,1009.43,1632.5,1010.764,1630.43,1013.828Z" transform="translate(-1454.9 -900.582)" fill="#deeaa9"/>
        <path id="Path_16515" data-name="Path 16515" d="M1598.419,990.414l-.449-.254a11.331,11.331,0,0,1,4.988-4.8,7.6,7.6,0,0,1,3.125-.681,7.315,7.315,0,0,1,2.053.3l-.146.494a6.845,6.845,0,0,0-1.909-.281,7.129,7.129,0,0,0-2.922.645A10.808,10.808,0,0,0,1598.419,990.414Z" transform="translate(-1426.311 -878.902)" fill="#deeaa9"/>
        <path id="Path_16516" data-name="Path 16516" d="M633.207,2411.484H409.15a8.67,8.67,0,0,1-8.66-8.661V2263.909a8.67,8.67,0,0,1,8.66-8.659H633.207a8.669,8.669,0,0,1,8.66,8.659v138.914A8.669,8.669,0,0,1,633.207,2411.484ZM409.15,2257.271a6.646,6.646,0,0,0-6.64,6.639v138.914a6.646,6.646,0,0,0,6.64,6.639H633.207a6.646,6.646,0,0,0,6.639-6.639V2263.909a6.646,6.646,0,0,0-6.639-6.639Z" transform="translate(-357.468 -2012.984)" fill="#686874"/>
        <rect id="Rectangle_2803" data-name="Rectangle 2803" width="239.355" height="154.214" rx="15.14" transform="translate(71.679 226.108)" fill="#f8f8fe"/>
        <path id="Path_16517" data-name="Path 16517" d="M892.361,2253.207H668.3a8.453,8.453,0,0,1-8.445-8.444V2105.844a8.453,8.453,0,0,1,8.445-8.444H892.361a8.453,8.453,0,0,1,8.443,8.444v138.919A8.453,8.453,0,0,1,892.361,2253.207ZM668.3,2098.993a6.862,6.862,0,0,0-6.855,6.85v138.919a6.862,6.862,0,0,0,6.855,6.854H892.361a6.862,6.862,0,0,0,6.854-6.854V2105.844a6.863,6.863,0,0,0-6.855-6.854Z" transform="translate(-588.976 -1872.09)" fill="#686874"/>
        <path id="Path_16518" data-name="Path 16518" d="M679.34,2306.59h236.4" transform="translate(-606.363 -2058.808)" fill="#f8f8fe"/>
        <path id="Path_16519" data-name="Path 16519" d="M671.367,2299.337h236.4a.994.994,0,0,0,0-1.986h-236.4A.994.994,0,0,0,671.367,2299.337Z" transform="translate(-598.39 -2050.562)" fill="#686874"/>
        <ellipse id="Ellipse_210" data-name="Ellipse 210" cx="3.43" cy="3.43" rx="3.43" ry="3.43" transform="translate(82.566 233.768)" fill="#686874"/>
        <ellipse id="Ellipse_211" data-name="Ellipse 211" cx="3.43" cy="3.43" rx="3.43" ry="3.43" transform="translate(94.828 233.768)" fill="#686874"/>
        <ellipse id="Ellipse_212" data-name="Ellipse 212" cx="3.43" cy="3.43" rx="3.43" ry="3.43" transform="translate(107.09 233.768)" fill="#686874"/>
        <rect id="Rectangle_2804" data-name="Rectangle 2804" width="209.139" height="18.567" rx="9.284" transform="translate(86.787 258.89)" fill="#f8f8fe"/>
        <path id="Path_16520" data-name="Path 16520" d="M1003.912,2423.459H809.476a8.057,8.057,0,0,1-8.046-8.046v-3.867a8.057,8.057,0,0,1,8.046-8.046h194.436a8.057,8.057,0,0,1,8.046,8.046v3.867A8.057,8.057,0,0,1,1003.912,2423.459Zm-194.436-18.567a6.66,6.66,0,0,0-6.66,6.66v3.868a6.66,6.66,0,0,0,6.66,6.66h194.436a6.666,6.666,0,0,0,6.66-6.66v-3.868a6.666,6.666,0,0,0-6.66-6.66Z" transform="translate(-715.338 -2145.308)" fill="#686874"/>
        <rect id="Rectangle_2805" data-name="Rectangle 2805" width="77.162" height="77.162" transform="translate(86.888 290.161)" fill="#f8f8fe"/>
        <path id="Path_16521" data-name="Path 16521" d="M880.191,2772.451H801.44V2693.7h78.751Zm-77.162-1.589H878.6V2695.29H803.029Z" transform="translate(-715.347 -2404.334)" fill="#686874"/>
        <rect id="Rectangle_2806" data-name="Rectangle 2806" width="86.938" height="6.683" transform="translate(179.771 297.798)" fill="#f8f8fe"/>
        <path id="Path_16522" data-name="Path 16522" d="M1757.017,2775.473H1669.15v-7.613h87.867Zm-86.938-.929h86.008v-5.754h-86.008Z" transform="translate(-1489.844 -2470.527)" fill="#686874"/>
        <rect id="Rectangle_2807" data-name="Rectangle 2807" width="82.73" height="4.57" transform="translate(183.519 299.446)" fill="#d6ed75"/>
        <rect id="Rectangle_2808" data-name="Rectangle 2808" width="94.379" height="6.683" transform="translate(198.042 312.386)" fill="#f8f8fe"/>
        <path id="Path_16523" data-name="Path 16523" d="M1934.548,2911.273H1839.24v-7.613h95.308Zm-94.379-.93h93.45v-5.753h-93.45Z" transform="translate(-1641.663 -2591.74)" fill="#686874"/>
        <rect id="Rectangle_2809" data-name="Rectangle 2809" width="112.651" height="6.683" transform="translate(179.771 326.974)" fill="#f8f8fe"/>
        <path id="Path_16524" data-name="Path 16524" d="M1782.73,3047.073H1669.15v-7.613H1782.73Zm-112.651-.93H1781.8v-5.753h-111.72Z" transform="translate(-1489.844 -2712.951)" fill="#686874"/>
        <rect id="Rectangle_2810" data-name="Rectangle 2810" width="112.651" height="6.683" transform="translate(179.771 341.561)" fill="#f8f8fe"/>
        <path id="Path_16525" data-name="Path 16525" d="M1782.73,3182.863H1669.15v-7.613H1782.73Zm-112.651-.929H1781.8v-5.754h-111.72Z" transform="translate(-1489.844 -2834.155)" fill="#686874"/>
        <rect id="Rectangle_2811" data-name="Rectangle 2811" width="48.186" height="6.683" transform="translate(179.771 356.149)" fill="#f8f8fe"/>
        <path id="Path_16526" data-name="Path 16526" d="M1718.265,3318.663H1669.15v-7.614h49.115Zm-48.186-.93h47.256v-5.753h-47.256Z" transform="translate(-1489.844 -2955.365)" fill="#686874"/>
        <rect id="Rectangle_2812" data-name="Rectangle 2812" width="90.144" height="4.57" transform="translate(201.803 314.038)" fill="#adca31"/>
        <path id="Path_16527" data-name="Path 16527" d="M961.7,2750.292a46.391,46.391,0,0,1-9.447-6.952,46.313,46.313,0,0,1-25.964,12.4v31.394a41.688,41.688,0,0,0,2.43,5.3,40.489,40.489,0,0,0,4.008,6,42.472,42.472,0,0,0,19.526,13.415c9.794-4.263,16.511-9.675,19.525-13.415a40.551,40.551,0,0,0,4.009-6,41.775,41.775,0,0,0,2.429-5.3v-31.394A46.63,46.63,0,0,1,961.7,2750.292Z" transform="translate(-826.785 -2448.642)" fill="#deeaa9"/>
        <path id="Path_16528" data-name="Path 16528" d="M949.768,2808.724l-.108-.037A42.679,42.679,0,0,1,930,2795.175a40.85,40.85,0,0,1-4.038-6.044,42.049,42.049,0,0,1-2.455-5.346l-.019-.051V2752.02l.262-.034a46.007,46.007,0,0,0,25.795-12.318l.209-.2.207.2a46.007,46.007,0,0,0,25.8,12.32l.261.034v31.717l-.02.052a42.109,42.109,0,0,1-2.446,5.342,40.928,40.928,0,0,1-4.039,6.045c-2.971,3.689-9.692,9.172-19.64,13.5Zm-25.674-25.1a41.393,41.393,0,0,0,2.392,5.214,40.291,40.291,0,0,0,3.975,5.956,42.052,42.052,0,0,0,19.277,13.281c9.788-4.279,16.387-9.661,19.3-13.281a40.192,40.192,0,0,0,3.975-5.956,41.411,41.411,0,0,0,2.392-5.214v-31.08a46.581,46.581,0,0,1-25.661-12.246,46.589,46.589,0,0,1-25.662,12.246Z" transform="translate(-824.286 -2445.187)" fill="#686874"/>
        <path id="Path_16529" data-name="Path 16529" d="M1009.488,2822.552a35.608,35.608,0,0,1-7.259-5.342,35.593,35.593,0,0,1-19.95,9.528v24.123a32.1,32.1,0,0,0,1.866,4.076,31.1,31.1,0,0,0,3.081,4.611,32.638,32.638,0,0,0,15,10.307c7.52-3.276,12.686-7.433,15-10.307a31.131,31.131,0,0,0,3.081-4.611,31.945,31.945,0,0,0,1.866-4.076v-24.123A35.847,35.847,0,0,1,1009.488,2822.552Z" transform="translate(-876.76 -2514.576)" fill="#f7f7fe"/>
        <path id="Path_16530" data-name="Path 16530" d="M1130.445,2944.24h-3.438a3.018,3.018,0,0,0-3.008,3.013v4.082h9.453v-4.082A3.018,3.018,0,0,0,1130.445,2944.24Zm-5.049,3.013a1.612,1.612,0,0,1,1.611-1.611h3.438a1.611,1.611,0,0,1,1.611,1.611v3.364h-6.66Z" transform="translate(-1003.256 -2627.96)" fill="#2b2c31"/>
        <path id="Path_16531" data-name="Path 16531" d="M1105,3005.1v10.89a1.8,1.8,0,0,0,1.8,1.8h9.94a1.8,1.8,0,0,0,1.8-1.8V3005.1Zm12.978,10.89a1.239,1.239,0,0,1-1.24,1.236h-9.94a1.24,1.24,0,0,1-1.24-1.237v-10.329h12.419Z" transform="translate(-986.297 -2682.282)" fill="#2b2c31"/>
        <path id="Path_16532" data-name="Path 16532" d="M1157.88,3038.107a1.2,1.2,0,0,0-.454-2.307h-.167a1.2,1.2,0,0,0-.454,2.307l-.4,3.094c-.047.364.142.689.411.689h1.047c.27,0,.458-.322.412-.689Z" transform="translate(-1031.872 -2709.685)" fill="#2b2c31"/>
        <ellipse id="Ellipse_213" data-name="Ellipse 213" cx="1.273" cy="1.273" rx="1.273" ry="1.273" transform="translate(115.096 340.938)" fill="#2b2c31"/>
        <ellipse id="Ellipse_214" data-name="Ellipse 214" cx="1.273" cy="1.273" rx="1.273" ry="1.273" transform="translate(119.646 340.938)" fill="#2b2c31"/>
        <path id="Path_16533" data-name="Path 16533" d="M1158.676,3175.052a1.273,1.273,0,1,1-1.272-1.273A1.273,1.273,0,0,1,1158.676,3175.052Z" transform="translate(-1031.935 -2832.842)" fill="#2b2c31"/>
        <ellipse id="Ellipse_215" data-name="Ellipse 215" cx="1.273" cy="1.273" rx="1.273" ry="1.273" transform="translate(128.746 340.938)" fill="#2b2c31"/>
        <ellipse id="Ellipse_216" data-name="Ellipse 216" cx="1.273" cy="1.273" rx="1.273" ry="1.273" transform="translate(133.296 340.938)" fill="#2b2c31"/>
        <path id="Path_16534" data-name="Path 16534" d="M567.42,544.53h77.237v71.6a2.081,2.081,0,0,1-2.081,2.081H569.5a2.081,2.081,0,0,1-2.081-2.081Z" transform="translate(-506.466 -486.035)" fill="#deeaa9"/>
        <path id="Path_16535" data-name="Path 16535" d="M681.414,159.53h20.262a17.808,17.808,0,0,1,17.784,17.783v24.1H663.63v-24.1A17.808,17.808,0,0,1,681.414,159.53Zm31.046,38.887H670.633v-21.1a10.793,10.793,0,0,1,10.781-10.781h20.262a10.793,10.793,0,0,1,10.781,10.781Zm-39.3-2.521h36.773V177.312a8.265,8.265,0,0,0-8.255-8.255H681.414a8.265,8.265,0,0,0-8.255,8.255Z" transform="translate(-592.341 -142.393)" fill="none"/>
        <path id="Path_16536" data-name="Path 16536" d="M631.6,544.53v64.254a10.621,10.621,0,0,1-10.611,10.6H562.331a10.621,10.621,0,0,1-10.611-10.6V544.53Zm-77.573,64.98A7.52,7.52,0,0,0,561.535,617h60.243a7.52,7.52,0,0,0,7.512-7.493v-63.1H554.023Z" transform="translate(-492.452 -486.035)" fill="#2b2c31"/>
        <path id="Path_16537" data-name="Path 16537" d="M857.473,739.288a7.066,7.066,0,0,1,2.686-13.608h.98a7.066,7.066,0,0,1,2.686,13.608l2.351,18.262c.275,2.138-.839,4.062-2.431,4.062H857.55c-1.592,0-2.706-1.924-2.431-4.062Z" transform="translate(-761.436 -647.725)" fill="#fff"/>
        <path id="Path_16538" data-name="Path 16538" d="M851.289,756.091h6.181a2.846,2.846,0,0,0,2.148-1.025,4.984,4.984,0,0,0,1.032-3.894l-2.275-17.708a7.827,7.827,0,0,0-3.506-14.824h-.98a7.827,7.827,0,0,0-3.506,14.824l-2.278,17.708a4.985,4.985,0,0,0,1.032,3.894A2.859,2.859,0,0,0,851.289,756.091Zm3.581-35.934a6.306,6.306,0,0,1,2.392,12.139l-.537.221,2.426,18.843a3.509,3.509,0,0,1-.666,2.7,1.365,1.365,0,0,1-1.011.508h-6.185a1.368,1.368,0,0,1-1.011-.507,3.516,3.516,0,0,1-.666-2.7l2.425-18.843-.537-.221a6.306,6.306,0,0,1,2.392-12.139Z" transform="translate(-755.176 -641.441)" fill="#2b2c31"/>
        <path id="Path_16539" data-name="Path 16539" d="M1418.881,866.288a16.875,16.875,0,1,1-20.242,12.648A16.875,16.875,0,0,1,1418.881,866.288Zm3.312,22.4a4.2,4.2,0,1,0-2.621-1.865A4.2,4.2,0,0,0,1422.193,888.684Z" transform="translate(-1248.004 -772.839)" fill="#95ac36"/>
        <path id="Path_16540" data-name="Path 16540" d="M928.578,845.568l51.09,11.8q.893-3.867,1.786-7.735l-51-11.781L927,840.767Z" transform="translate(-827.419 -747.845)" fill="#95ac36"/>
        <path id="Path_16541" data-name="Path 16541" d="M1310.153,999.094l5.3-3.089-9.116-2.105Z" transform="translate(-1166.009 -887.132)" fill="#95ac36"/>
        <path id="Path_16542" data-name="Path 16542" d="M1244.375,983.118l4.374-2.551-7.52-1.737Q1242.8,980.977,1244.375,983.118Z" transform="translate(-1107.893 -873.681)" fill="#95ac36"/>
        <path id="Path_16543" data-name="Path 16543" d="M1010.3,929.853l5.3-3.088-9.116-2.1Z" transform="translate(-898.37 -825.33)" fill="#95ac36"/>
        <path id="Path_16544" data-name="Path 16544" d="M1125.434,954.741l3.216-1.874-5.53-1.277Z" transform="translate(-1002.471 -849.367)" fill="#95ac36"/>
        <path id="Path_16545" data-name="Path 16545" d="M1176.4,967.715l-1.8-4.235,5.529,1.277Z" transform="translate(-1048.421 -859.98)" fill="#95ac36"/>
        <path id="Path_16546" data-name="Path 16546" d="M943.294,912.259l2.7-1.575-4.647-1.074Z" transform="translate(-840.227 -811.897)" fill="#95ac36"/>
        <path id="Path_16547" data-name="Path 16547" d="M738.33,1899.637l71.82.058.013-16.925c-3.86-1.912-29.765-14.209-54.045-.043A55.768,55.768,0,0,0,738.33,1899.637Z" transform="translate(-659.016 -1674.472)" fill="#f8ffdb"/>
        <path id="Path_16548" data-name="Path 16548" d="M1088.772,1222.486l-35.79,51.339-44.591-10.849,45.819-68.518a22.961,22.961,0,0,1,28.021-1.918C1091.48,1198.965,1094.55,1212,1088.772,1222.486Z" transform="translate(-900.065 -1060.961)" fill="#95ac36"/>
        <path id="Path_16549" data-name="Path 16549" d="M1588.788,1273.089l-60.749-42.632a21.283,21.283,0,0,0-9.644,1.8c-1.033.461-6.456,2.685-9.033,7.672-7.2,13.945,10.669,35.79,10.68,35.8l.034.04.014.016.063.073a3.209,3.209,0,0,1,.508.967c.1.332,7.113,8.379,29.414,33.4a26.834,26.834,0,0,0,38.712-37.135Z" transform="translate(-1345.696 -1098.255)" fill="#95ac36"/>
        <path id="Path_16550" data-name="Path 16550" d="M1993.011,1018.824a23.313,23.313,0,0,0-11.294,2.493c-7.717,4-10.774,11.532-12.762,16.428a43.452,43.452,0,0,0-3.115,14.342l17.648,9.073,16.915-13.338c4.875-3.844,11.01-14.219,7.349-21.549C2004.477,1019.716,1994.592,1018.929,1993.011,1018.824Z" transform="translate(-1754.663 -909.371)" fill="#95ac36"/>
        <path id="Path_16551" data-name="Path 16551" d="M2174.829,1201.338a30.427,30.427,0,0,1-13.139-10.688l4.708,17.626Z" transform="translate(-1929.474 -1062.747)" fill="#c158c8"/>
        <circle id="Ellipse_217" data-name="Ellipse 217" cx="25.984" cy="25.984" r="25.984" transform="translate(206.338 134.667) rotate(-45)" fill="#adca31"/>
        <path id="Path_16552" data-name="Path 16552" d="M1525.5,1642.162l63.552.469c9.668-7.842,14.475-20.022,12.436-31.831-2.461-14.259-13.789-21.478-15.617-22.6l-70.565,10.37a26.92,26.92,0,0,0-7.21,16.127C1507.382,1625.608,1514.243,1636.432,1525.5,1642.162Z" transform="translate(-1346.043 -1417.59)" fill="#adca31"/>
        <path id="Path_16553" data-name="Path 16553" d="M1569.91,1724.561l43.835-8.379-1.1-.7a8.942,8.942,0,0,0,7.442,8.473,9.137,9.137,0,0,0,9.783-4.745c.43-.87-1.055-1.589-1.487-.717-3.153,6.369-14.064,4.663-14.118-3.073,0-.537-.645-.787-1.1-.7l-43.835,8.379C1568.318,1723.292,1568.9,1724.754,1569.91,1724.561Z" transform="translate(-1400.277 -1530.503)" fill="#9c3fcc"/>
        <ellipse id="Ellipse_218" data-name="Ellipse 218" cx="11.836" cy="12.867" rx="11.836" ry="12.867" transform="translate(229.525 74.825) rotate(-7.67)" fill="#f8ffdb"/>
        <path id="Path_16554" data-name="Path 16554" d="M2161.371,677.008a52.278,52.278,0,0,1,4.441,3.913,53.884,53.884,0,0,1,5.143,5.879c1.113,4.282,3.411,7.771,6.173,8.253,4.479.782,9.447-6.47,8.879-12.815-.594-6.652-7.083-10.163-9.038-11.221-1.729-.936-4.354-2.277-7.566-1.622C2164.048,670.487,2161.668,676.257,2161.371,677.008Z" transform="translate(-1929.189 -597.332)" fill="#2b2c31"/>
        <ellipse id="Ellipse_219" data-name="Ellipse 219" cx="2.955" cy="2.335" rx="2.955" ry="2.335" transform="matrix(0.168, -0.986, 0.986, 0.168, 239.809, 91.212)" fill="#f8ffdb"/>
        <path id="Path_16555" data-name="Path 16555" d="M2363.549,1705.667l-36.319-47.106-16.46,3.937.135,43.094Z" transform="translate(-2062.539 -1480.392)" fill="#f8ffdb"/>
        <path id="Path_16556" data-name="Path 16556" d="M1448.662,1725.868q30.577.182,61.155.383c.414,0,.825,0,1.236.007l16.025.1q-.515-22.362-1.029-44.718-39.639.158-79.278.322a22.968,22.968,0,0,0,1.891,43.906Z" transform="translate(-1277.66 -1500.993)" fill="#cb6bff"/>
        <path id="Path_16557" data-name="Path 16557" d="M1448.583,1728.119q30.577.184,61.154.384c.413,0,.825,0,1.236.006l16.025.1q-.515-22.363-1.029-44.719-39.639.159-79.279.322a22.968,22.968,0,0,0,1.892,43.906Z" transform="translate(-1277.589 -1503.001)" fill="#adca31"/>
        <path id="Path_16558" data-name="Path 16558" d="M2159.658,1770.487c.413,0,.825,0,1.236.008l-.177-39.295h-1.238Z" transform="translate(-1927.501 -1545.229)" fill="#95ac36"/>
        <rect id="Rectangle_2813" data-name="Rectangle 2813" width="1.238" height="25.412" transform="translate(237.406 193.731) rotate(-0.71)" fill="#95ac36"/>
        <path id="Path_16559" data-name="Path 16559" d="M2014.872,1113.791l29.068-27.13c4.749-9.767,1.36-20.467-5.814-24.3-7.337-3.918-15.745.894-16.248,1.192l-28.77,31.3a14.662,14.662,0,0,0,21.764,18.931Z" transform="translate(-1777.215 -946.877)" fill="#adca31"/>
        <path id="Path_16560" data-name="Path 16560" d="M2248.851,201.214c2.7,2.649,19.006-4.538,26.832-18.484,6.678-11.9,8.8-31.625-2.385-40.845-9.916-8.164-27.445-5.746-29.515-.3-1.606,4.227,7.262,7.2,10.732,19.379,2.662,9.346.556,18.526-.6,23.552C2251.375,195.612,2247.262,199.651,2248.851,201.214Z" transform="translate(-2002.577 -121.927)" fill="#2b2c31"/>
        <path id="Path_16561" data-name="Path 16561" d="M1619.318,1218.582l-28.188-19.988,5.708-8.594,24.083,10.257Q1620.12,1209.419,1619.318,1218.582Z" transform="translate(-1420.206 -1062.167)" fill="#f8ffdb"/>
        <path id="Path_16562" data-name="Path 16562" d="M1512.662,1081.8l-7.8-2a23.6,23.6,0,0,1-1.64-8.2,24.077,24.077,0,0,1,3.28-12.447l6.037,11.776a26.818,26.818,0,0,1,7.6,2.982,6.032,6.032,0,0,1-1.64,7.527A5.855,5.855,0,0,1,1512.662,1081.8Z" transform="translate(-1341.734 -945.373)" fill="#f8ffdb"/>
        <path id="Path_16563" data-name="Path 16563" d="M1649.276,1215.22q-4.322,12.224-8.646,24.446L1687.6,1253.7c7.16-2.445,12.286-7.266,12.8-12.689.609-6.412-4.47-13.2-9.689-14.609Z" transform="translate(-1464.388 -1084.677)" fill="#adca31"/>
        <path id="Path_16564" data-name="Path 16564" d="M2324.737,1118.494a1.453,1.453,0,1,1-1.453-1.454A1.453,1.453,0,0,1,2324.737,1118.494Z" transform="translate(-2072.411 -997.044)" fill="#deeaa9"/>
        <path id="Path_16565" data-name="Path 16565" d="M2322.693,1276.18a3.491,3.491,0,1,1-3.491-3.49,3.491,3.491,0,0,1,3.491,3.49Z" transform="translate(-2066.949 -1135.974)" fill="#deeaa9"/>
        <path id="Path_16566" data-name="Path 16566" d="M2133.843,1305.852a.671.671,0,1,1-.2-.475A.671.671,0,0,1,2133.843,1305.852Z" transform="translate(-1903.42 -1164.973)" fill="#deeaa9"/>
        <circle id="Ellipse_220" data-name="Ellipse 220" cx="4.185" cy="4.185" r="4.185" transform="translate(225.564 154.591) rotate(-45)" fill="#deeaa9"/>
        <path id="Path_16567" data-name="Path 16567" d="M2265.148,1419.993a1.134,1.134,0,1,1-1.133-1.133A1.134,1.134,0,0,1,2265.148,1419.993Z" transform="translate(-2019.794 -1266.442)" fill="#deeaa9"/>
        <ellipse id="Ellipse_221" data-name="Ellipse 221" cx="4.584" cy="4.584" rx="4.584" ry="4.584" transform="translate(195.993 138.667)" fill="#deeaa9"/>
        <path id="Path_16568" data-name="Path 16568" d="M1911.552,1440.806a.86.86,0,1,1-.25-.612A.866.866,0,0,1,1911.552,1440.806Z" transform="translate(-1704.661 -1285.257)" fill="#deeaa9"/>
        <ellipse id="Ellipse_222" data-name="Ellipse 222" cx="3.633" cy="3.633" rx="3.633" ry="3.633" transform="translate(182.913 145.151)" fill="#deeaa9"/>
        <path id="Path_16569" data-name="Path 16569" d="M160.341,319.432H145V304.09h15.341Zm-13.826-1.516h12.312V305.6H146.515Z" transform="translate(-129.424 -271.424)" fill="#5e5e69"/>
        <path id="Path_16570" data-name="Path 16570" d="M2848.144,4037.3h-9.3V4028h9.3Zm-7.789-1.515h6.273v-6.274h-6.273Z" transform="translate(-2533.883 -3595.3)" fill="#5e5e69"/>
        <path id="Path_16571" data-name="Path 16571" d="M3004.87,19.7h-19.7V0h19.7Zm-18.185-1.515h16.67V1.516h-16.67Z" transform="translate(-2664.493)" fill="#5e5e69"/>
        <path id="Path_16572" data-name="Path 16572" d="M2823.742,1575.331H2812.8V1564.39h10.942Zm-9.426-1.516h7.91V1565.9h-7.91Z" transform="translate(-2510.639 -1396.338)" fill="#5e5e69"/>
        <path id="Path_16573" data-name="Path 16573" d="M15.178,2846.862H0V2831.68H15.178Zm-13.662-1.515H13.662v-12.152H1.516Z" transform="translate(0 -2527.492)" fill="#5e5e69"/>
      </g>
    </g>
  </g>
</svg>
